# xmcd CD database file
# Copyright (C) 1993-1998 Ti Kan
#
# Track frame offsets:
#	150
#	13175
#	28447
#	45382
#	63035
#	84845
#	133562
#	151170
#
# Disc length: 2340 seconds
#
# Revision: 1
# Processed by: cddbd v1.4b41PL1 Copyright (c) Steve Scherf et al.
# Submitted via: CDValet v3.31 - Copyright (c) 1997 Greg Leichner
#
DISCID=57092208
DTITLE=Masters Apprentices - Do What You Wanna Do
DYEAR=1900
DGENRE=
TTITLE0=Howlin' At The Moon
TTITLE1=Turn Up Your Radio
TTITLE2=Bedtime Girl
TTITLE3=Birth Of The Beat
TTITLE4=Because I Love You
TTITLE5=Blues Medley
TTITLE6=Highway 61 Revisited
TTITLE7=Future Of Our Nation
EXTD=
EXTT0=
EXTT1=
EXTT2=
EXTT3=
EXTT4=
EXTT5=Spoonful\nTobacco Road\nI'm A Man\nCrossroads
EXTT6=
EXTT7=
PLAYORDER=
